# xmcd CD database file generated by LOLA_Freedb v0.9beta0
# 
# Track frame offsets:
#      150
#      6495
#      18383
#      30203
#      38381
#      48509
#      58081
#      65507
#      70870
#      71212
#      90675
#      102958
#      112103
#      154103
#      155221
#      161459
#      161996
#      168830
#      172312
#      178693
#      188694
#      199618
#      206960
#      214252
# 
# Disc length: 2932 seconds
# 
# Revision: 0 
# Processed by: cddbd v1.5.2PL0 Copyright (c) Steve Scherf et al.
# Submitted via: LOLA_Freedb v0.9beta0
# 
DISCID=5b0b7218
DTITLE=Gilde - Pingsten ward fiert
DYEAR=2005
DGENRE=
TTITLE0=Weckruf
TTITLE1=Grillenbanner Marsch
TTITLE2=Gilderevue
TTITLE3=Dragoner Marsch
TTITLE4=Gruﬂ an Kiel
TTITLE5=Frei Weg
TTITLE6=Revue Marsch
TTITLE7=Pr‰sentiermarsch
TTITLE8=Kommando zur Serenade
TTITLE9=Herzog von Braunschweig Marsch
TTITLE10=Erbherzog Albrecht Marsch
TTITLE11=Regimentsgruﬂ
TTITLE12=Groﬂer Zapfenstreich
TTITLE13=Kommando zur Nationalhymne
TTITLE14=Nationalhymne
TTITLE15=Kommando nach der Natinalhymne
TTITLE16=Hohenfreidberger Marsch
TTITLE17=Kammeroad kumm
TTITLE18=Waidmannsheil
TTITLE19=Gallant Marienes
TTITLE20=Tippelbr¸der Marsch
TTITLE21=York`scher Reitermarsch
TTITLE22=Preussens Gloria
TTITLE23=Blasorchester Wittekind Wildeshausen - Gruﬂ der Tamboure
EXTD=
EXTT0=
EXTT1=
EXTT2=
EXTT3=
EXTT4=
EXTT5=
EXTT6=
EXTT7=
EXTT8=
EXTT9=
EXTT10=
EXTT11=
EXTT12=
EXTT13=
EXTT14=
EXTT15=
EXTT16=
EXTT17=
EXTT18=
EXTT19=
EXTT20=
EXTT21=
EXTT22=
EXTT23=
PLAYORDER=
